PathFileType	4	(X/Y/Z)	C:\Users\WrightLab\Desktop\Jo\P3_36.trc
DataRate	CameraRate	NumFrames	NumMarkers	Units	OrigDataRate	OrigDataStartFrame	OrigNumFrames
100.00	100.00	       20	19	mm	100.00	74	       584
Frame#	Time	Headset_Front			Headset_Back			Headset_Left			Headset_Right			Left_Shoulder			Right_Shoulder			Sternum			C7			Left Elbow			Right Elbow			Left Wrist			Right Wrist			Left ASIS			Right ASIS			S2			Left Knee			Right Knee			Left Ankle			Right Ankle			
		X1	Y1	Z1	X2	Y2	Z2	X3	Y3	Z3	X4	Y4	Z4	X5	Y5	Z5	X6	Y6	Z6	X7	Y7	Z7	X8	Y8	Z8	X9	Y9	Z9	X10	Y10	Z10	X11	Y11	Z11	X12	Y12	Z12	X13	Y13	Z13	X14	Y14	Z14	X15	Y15	Z15	X16	Y16	Z16	X17	Y17	Z17	X18	Y18	Z18	X19	Y19	Z19	

74	0.730				-78.43404	1664.98950	2128.39624	-204.51814	1585.27905	2058.34668				-277.12155	1368.07837	2126.70093	85.79242	1378.50000	2164.99707				-97.36387	1431.95886	2193.33838	-339.60745	1035.79407	2110.73218	156.09952	1038.15161	2229.08301	-325.16992	876.52692	1980.27283	169.91368	845.38672	2112.84766	-181.54762	898.69189	2053.41846				-90.13696	985.38812	2280.43457	-159.40630	490.05496	2029.85815	53.89960	472.37643	2259.39795	-148.10753	158.74545	2058.26318	22.61912	239.51933	2511.37427	
75	0.740				-78.70047	1665.85291	2120.50879	-204.25861	1586.17395	2049.60352				-276.94006	1369.23267	2117.64307	85.41209	1379.48486	2156.76025				-97.94282	1432.75574	2185.70483	-341.27222	1037.55164	2100.14087	157.01506	1038.95264	2219.41309	-326.58508	879.63678	1966.79395	170.96466	847.36157	2103.29810	-181.51025	899.03149	2044.27148				-89.94276	985.66962	2270.85522	-160.26184	489.97607	2023.17651	56.23182	470.59848	2241.31030	-148.10394	158.05881	2057.21362	24.47450	243.97287	2498.03223	
76	0.750				-78.76583	1667.12244	2112.66895	-204.77448	1587.93726	2042.59314				-277.58661	1370.32800	2109.82153	84.97529	1380.76172	2148.49463				-98.50077	1433.47681	2178.22583	-342.82980	1039.14392	2089.80640	156.95502	1040.24451	2211.20288	-328.40268	882.12494	1955.56921	171.70468	849.40228	2092.24854	-181.35875	899.36511	2034.26025				-90.54192	986.12280	2262.29834	-160.11044	488.74432	2018.71423	58.18640	469.02737	2222.41675	-148.04951	157.71330	2056.46191	27.19770	249.78671	2485.66675	
77	0.760				-78.19760	1667.35522	2104.21021	-204.57304	1588.43237	2034.87134				-277.82852	1370.75781	2100.68262	84.51752	1381.43237	2141.07886				-98.82485	1434.21765	2170.31567	-344.28558	1041.07739	2078.83228	156.99245	1041.24255	2202.69019	-330.22849	885.27374	1942.41638	173.05688	849.63062	2084.91650	-181.22249	900.07318	2026.83313				-91.05359	986.86981	2253.27783	-160.59673	488.13647	2017.18713	60.97698	466.92914	2203.54346	-148.05458	157.44957	2056.04980	29.22510	256.96365	2471.82861	
78	0.770				-78.22861	1668.32275	2097.34497	-204.31680	1589.15344	2026.69580				-277.97476	1372.14001	2091.96875	84.38292	1381.96582	2133.02417				-98.94607	1434.77661	2161.89893	-345.73303	1040.06299	2064.26587	157.03233	1042.41675	2194.39600	-331.97433	887.93518	1928.64758	174.03822	852.28961	2073.76587	-181.03957	899.31665	2018.56152				-91.67565	986.88391	2244.96484	-161.99763	487.25824	2012.53101	62.63868	465.44028	2182.24585	-148.15363	157.39294	2055.80566	31.07706	262.13156	2456.47705	
79	0.780				-78.05793	1669.17041	2090.00220	-204.56207	1589.85767	2019.00085				-277.92697	1372.84961	2083.30469	84.05579	1382.55750	2125.84253				-99.18603	1435.40283	2153.87329	-346.26950	1043.62683	2056.51758	157.55634	1042.08997	2185.15479	-333.71457	890.67157	1917.47449	175.35677	853.33112	2063.76465	-180.74194	899.75879	2009.14563				-92.11970	987.26385	2236.26074	-162.73199	486.02966	2009.84961	65.68697	464.41019	2164.55591	-148.36725	157.52344	2055.87109	32.74758	267.63785	2439.09595	
80	0.790				-77.56659	1669.33423	2081.26807	-204.42261	1590.21582	2011.77612				-277.57944	1373.87024	2074.21802	83.98580	1383.18811	2118.34644				-99.56289	1435.79138	2146.36670	-347.75974	1044.61853	2044.81750	158.00427	1041.97034	2176.56543	-335.69757	893.24164	1903.93909	177.28226	853.18372	2058.31738	-180.19725	899.40350	2001.85266				-92.53592	987.07098	2227.73853	-163.33197	485.63596	2009.45679	67.72897	463.63431	2142.60083	-148.53520	157.38400	2055.46216	34.57631	274.04694	2424.27783	
81	0.800				-77.53137	1669.66199	2073.42773	-204.42236	1591.40466	2005.38196				-277.23376	1374.51306	2065.94092	83.67960	1383.78540	2111.52832				-99.78403	1436.47156	2138.37305	-349.10208	1046.13110	2033.74585	158.72792	1042.83118	2168.63477	-337.20834	895.84064	1891.67151	178.07939	855.65576	2047.54602	-179.92197	899.68427	1992.15796				-92.85417	987.32343	2219.97876	-164.86096	486.75674	2004.13013	70.27644	464.18588	2123.15601	-148.85324	157.41524	2055.15576	35.34124	276.38638	2404.60376	
82	0.810				-77.15630	1670.49524	2066.49438	-203.82883	1591.41577	1996.39514				-276.92639	1374.71216	2056.92383	83.70065	1384.20203	2104.68335				-100.00418	1437.01099	2130.50806	-350.51343	1048.09814	2021.44006	158.84703	1043.78687	2162.13452	-338.96570	899.53577	1877.19849	179.42593	857.00977	2034.41187	-179.40311	899.60504	1984.06018				-93.07368	988.02148	2212.60156	-165.39911	486.37711	2003.98730	73.18474	464.58612	2103.71313	-149.09160	157.47922	2054.89771	36.14667	281.63876	2388.25391	
83	0.820				-76.14857	1670.63757	2058.41064	-203.81134	1592.23120	1988.43616				-276.80112	1375.93628	2047.84631	83.83865	1384.07556	2097.00000				-100.21452	1437.31921	2122.88403	-351.52838	1049.22864	2010.22412	159.62247	1043.36377	2153.37402	-340.66556	901.63281	1865.99365	180.64905	858.92236	2023.72729	-179.10475	899.18103	1976.92114				-93.02613	987.57318	2204.64722	-165.97075	485.35101	2000.30554	75.75435	465.57803	2083.48120	-149.02374	157.60040	2054.34351	35.83965	287.11130	2371.31519	
84	0.830				-76.27560	1671.20654	2050.72925	-202.98116	1592.26392	1980.80994				-276.39880	1375.80664	2038.66760	83.63460	1384.45837	2089.49951				-100.22891	1438.07861	2115.32178	-352.49829	1050.88818	1998.19421	159.57744	1043.90088	2145.80078	-342.31287	904.11694	1852.68274	182.34920	859.79016	2018.20410	-178.65492	898.54425	1971.47498				-92.71618	987.73309	2197.10840	-166.00125	484.23047	1995.96753	78.05122	466.87863	2064.94043	-149.02606	157.66573	2053.65234	36.18311	289.09601	2351.28491	
85	0.840				-76.05524	1671.73132	2042.53247	-202.96648	1593.35938	1974.18579				-275.54532	1376.50781	2030.77197	84.08408	1384.49463	2082.62524				-99.87259	1438.17542	2107.54492	-353.41824	1052.01770	1986.60144	160.44913	1043.23132	2137.16333	-343.94284	906.46405	1840.58032	183.24915	861.93103	2005.16772	-178.75691	900.04120	1962.80505				-92.43397	988.42828	2190.28833	-165.89977	484.17331	1994.96118	80.06570	468.34708	2044.91309	-149.12036	157.78052	2053.12793	37.38500	291.80136	2332.47729	
86	0.850				-75.08664	1672.16199	2034.94128	-202.36246	1593.23877	1964.99268				-274.62750	1377.11145	2022.08154	84.25264	1384.90967	2076.11523				-100.10038	1438.79077	2100.28687	-354.14645	1053.85217	1975.11133	160.58339	1044.23096	2131.14722	-345.71613	909.72137	1828.55103	184.66560	863.39459	1997.17676	-178.76576	900.27863	1953.59558				-91.82960	988.38953	2182.62256	-165.62161	484.03821	1992.62451	82.69032	470.26447	2027.22546	-149.00339	157.79237	2052.39722	39.23193	292.33185	2312.22021	
87	0.860				-74.06812	1672.18958	2026.89417	-201.76131	1593.99170	1957.66113				-274.27170	1376.93982	2012.45178	84.25771	1385.04187	2069.00610				-99.45927	1438.63184	2091.78564	-354.86658	1055.30029	1964.00647	161.57390	1043.74634	2122.84692	-346.66467	913.58978	1813.80371	185.95145	865.33936	1986.50269	-178.31009	900.37140	1946.85803				-91.29342	988.73578	2174.67725	-165.66193	483.09995	1987.00562	84.76101	473.37436	2007.61218	-148.98138	157.95694	2051.83472	40.71798	291.54196	2290.87573	
88	0.870				-73.47910	1672.54102	2017.88770	-200.82846	1593.79565	1949.38501				-273.59863	1377.98645	2004.91821	84.51153	1385.15613	2061.73560				-99.54374	1439.44861	2084.91846	-355.35181	1056.45947	1952.40100	161.45053	1043.46216	2115.36987	-348.35367	915.78906	1802.22498	187.35211	866.63147	1977.84338	-178.02789	900.68298	1938.78821				-91.10443	989.33685	2168.30737	-165.52106	482.42178	1984.62439	86.57202	475.56372	1988.76526	-149.10594	158.07079	2051.18262	41.63624	290.11133	2268.09302	
89	0.880				-73.01224	1673.01697	2009.76318	-200.80493	1594.18225	1941.65833				-272.38989	1378.19019	1996.74768	85.16467	1385.26587	2055.32813				-99.07827	1440.02271	2077.52319	-356.17004	1057.69946	1940.91211	161.66322	1043.93701	2108.56421	-349.69229	918.77100	1789.14233	188.72620	868.20148	1967.57507	-177.28415	899.40405	1932.82690				-90.57254	989.18140	2160.85181	-165.41040	482.19727	1982.78015	88.61787	479.21497	1972.50818	-148.94792	158.27481	2050.43188	44.77710	288.52045	2247.74585	
90	0.890				-71.82876	1673.55115	2002.06189	-199.60507	1594.38208	1934.29700				-272.31262	1378.10474	1988.03894	85.20106	1385.72070	2047.90405				-98.64024	1440.03662	2069.39404	-356.27609	1059.34863	1929.82678	161.93779	1044.05859	2102.15454	-350.68094	921.32513	1775.88257	190.10620	870.27643	1959.95618	-177.26517	900.83594	1924.09338				-90.22707	989.52087	2152.79492	-165.48717	483.08710	1980.16675	90.47274	482.52283	1953.82715	-148.95195	158.53061	2049.99072	47.10914	284.87671	2224.65210	
91	0.900				-71.61244	1673.71924	1994.60266	-198.74474	1594.52478	1925.74414				-271.29782	1379.21094	1980.32788	85.92586	1385.30505	2040.91833				-98.46455	1440.16699	2061.90234	-356.79446	1061.26575	1919.33521	162.20810	1044.12561	2094.32446	-351.92392	924.18701	1763.69348	191.20853	871.90033	1949.69678	-176.69441	899.50507	1918.38733				-90.21716	990.10364	2146.07813	-164.88503	481.49805	1975.40149	92.13655	485.86517	1935.96912	-148.82939	158.73985	2049.57690	49.16154	281.92249	2203.19360	
92	0.910				-70.68903	1673.78357	1985.72241	-198.17152	1594.44897	1917.78662				-270.54230	1379.32556	1972.54456	86.28205	1385.52588	2034.74023				-97.95284	1440.63904	2054.77148	-357.26193	1063.20105	1908.03918	162.81378	1043.24670	2086.16479	-352.66968	926.75885	1751.81128	192.85651	873.07117	1942.39233	-176.43753	899.43341	1911.62354				-90.02708	990.01233	2139.09668	-164.66530	480.93094	1972.81360	93.81375	488.69354	1919.63916	-148.89227	158.90492	2048.94629	52.70070	278.16629	2182.12915	
93	0.920				-69.45238	1673.58594	1978.34766	-196.86385	1594.40491	1910.39990				-269.74200	1379.21155	1963.89282	86.65890	1385.67737	2027.15845				-97.09199	1440.53027	2046.96106	-357.41180	1064.20239	1896.84998	163.05206	1044.65662	2080.90381	-354.18405	929.85077	1740.65784	194.28059	873.76575	1934.29871	-175.89267	899.34686	1903.66614				-89.87557	989.76691	2131.13477	-165.09114	481.32730	1969.79761	95.87201	491.41617	1902.86584	-148.75502	159.19649	2048.42212	55.38630	270.89111	2156.54297	
